<svg width="32" height="32" viewBox="0 0 32 32" fill="none" xmlns="http://www.w3.org/2000/svg">
<path fill-rule="evenodd" clip-rule="evenodd" d="M6.57199 25.428C11.7787 30.6347 20.2213 30.6347 25.428 25.428C30.6347 20.2213 30.6347 11.7787 25.428 6.57199C20.2213 1.36533 11.7787 1.36533 6.57199 6.57199C1.36533 11.7787 1.36533 20.2213 6.57199 25.428ZM22.8347 9.16399C22.7424 9.06853 22.632 8.9924 22.51 8.94005C22.3879 8.8877 22.2567 8.86017 22.1239 8.85908C21.9911 8.85799 21.8595 8.88335 21.7366 8.93369C21.6137 8.98403 21.5021 9.05834 21.4083 9.15227C21.3144 9.24621 21.2402 9.3579 21.19 9.48082C21.1398 9.60374 21.1145 9.73543 21.1157 9.86821C21.117 10.001 21.1446 10.1322 21.1971 10.2542C21.2495 10.3761 21.3258 10.4865 21.4213 10.5787C22.1333 11.2906 22.6981 12.1358 23.0834 13.066C23.4687 13.9962 23.667 14.9931 23.667 16C23.667 17.0068 23.4687 18.0038 23.0834 18.934C22.6981 19.8642 22.1333 20.7094 21.4213 21.4213C21.3231 21.5129 21.2443 21.6233 21.1896 21.7459C21.135 21.8686 21.1056 22.001 21.1032 22.1353C21.1008 22.2696 21.1255 22.4029 21.1758 22.5275C21.2261 22.652 21.301 22.7651 21.3959 22.86C21.4909 22.955 21.604 23.0299 21.7285 23.0802C21.853 23.1305 21.9864 23.1552 22.1207 23.1528C22.255 23.1504 22.3874 23.121 22.51 23.0664C22.6327 23.0117 22.7431 22.9329 22.8347 22.8347C24.6475 21.0218 25.6659 18.5631 25.6659 15.9993C25.6659 13.4356 24.6475 10.9768 22.8347 9.16399ZM12.4653 12.464C12.9297 11.9996 13.4809 11.6313 14.0877 11.38C14.6944 11.1287 15.3446 10.9993 16.0013 10.9993C16.658 10.9993 17.3083 11.1287 17.915 11.38C18.5217 11.6313 19.073 11.9996 19.5373 12.464C20.0017 12.9283 20.37 13.4796 20.6213 14.0863C20.8726 14.693 21.002 15.3433 21.002 16C21.002 16.6567 20.8726 17.307 20.6213 17.9137C20.37 18.5204 20.0017 19.0716 19.5373 19.536C18.5995 20.4738 17.3276 21.0007 16.0013 21.0007C14.6751 21.0007 13.4031 20.4738 12.4653 19.536C11.5275 18.5982 11.0007 17.3263 11.0007 16C11.0007 14.6737 11.5275 13.4018 12.4653 12.464ZM13.88 13.8787C14.1586 13.6001 14.4893 13.3791 14.8533 13.2283C15.2172 13.0776 15.6074 13 16.0013 13C16.3953 13 16.7854 13.0776 17.1494 13.2283C17.5134 13.3791 17.8441 13.6001 18.1227 13.8787C18.4012 14.1572 18.6222 14.488 18.773 14.8519C18.9237 15.2159 19.0013 15.606 19.0013 16C19.0013 16.394 18.9237 16.7841 18.773 17.1481C18.6222 17.512 18.4012 17.8427 18.1227 18.1213C17.56 18.6839 16.797 19 16.0013 19C15.2057 19 14.4426 18.6839 13.88 18.1213C13.3174 17.5587 13.0013 16.7956 13.0013 16C13.0013 15.2043 13.3174 14.4413 13.88 13.8787ZM10.5787 10.5787C10.7553 10.3891 10.8515 10.1384 10.8469 9.8793C10.8423 9.62023 10.7374 9.37305 10.5542 9.18983C10.3709 9.00661 10.1238 8.90166 9.86469 8.89709C9.60562 8.89252 9.35489 8.98869 9.16533 9.16533C7.35249 10.9782 6.33406 13.4369 6.33406 16.0007C6.33406 18.5644 7.35249 21.0231 9.16533 22.836C9.35401 23.0181 9.60666 23.1187 9.86886 23.1163C10.1311 23.1139 10.3818 23.0087 10.5671 22.8232C10.7525 22.6377 10.8575 22.3868 10.8597 22.1246C10.8618 21.8624 10.7609 21.6098 10.5787 21.4213C9.86669 20.7094 9.30192 19.8642 8.9166 18.934C8.53128 18.0038 8.33296 17.0068 8.33296 16C8.33296 14.9931 8.53128 13.9962 8.9166 13.066C9.30192 12.1358 9.86669 11.2906 10.5787 10.5787Z" fill="#D97706"/>
</svg>
